<?xml version="1.0" encoding="UTF-8" standalone="no"?>
<!-- Created with Inkscape (http://www.inkscape.org/) -->

<svg
   version="1.1"
   id="svg16"
   width="750"
   height="980"
   viewBox="0 0 750 980"
   sodipodi:docname="BanderaVerde.svg"
   inkscape:version="1.1.1 (3bf5ae0d25, 2021-09-20)"
   xmlns:inkscape="http://www.inkscape.org/namespaces/inkscape"
   xmlns:sodipodi="http://sodipodi.sourceforge.net/DTD/sodipodi-0.dtd"
   xmlns="http://www.w3.org/2000/svg"
   xmlns:svg="http://www.w3.org/2000/svg">
  <defs
     id="defs20" />
  <sodipodi:namedview
     id="namedview18"
     pagecolor="#ffffff"
     bordercolor="#666666"
     borderopacity="1.0"
     inkscape:pageshadow="2"
     inkscape:pageopacity="0.0"
     inkscape:pagecheckerboard="0"
     showgrid="false"
     inkscape:zoom="0.8255102"
     inkscape:cx="374.91965"
     inkscape:cy="490"
     inkscape:window-width="2560"
     inkscape:window-height="1017"
     inkscape:window-x="1912"
     inkscape:window-y="1072"
     inkscape:window-maximized="1"
     inkscape:current-layer="g22" />
  <g
     inkscape:groupmode="layer"
     inkscape:label="Image"
     id="g22">
    <!-- AQUÍ SE CAMBIA EL COLOR, EN style="fill:#color -->
    <path
       style="fill:#fe0000;stroke-width:2;stroke:#000000;stroke-opacity:1;stroke-miterlimit:4;stroke-dasharray:none"
       d="m 384.37305,454.94661 c -5.1728,-0.21057 -10.03761,-0.9847 -11.31921,-1.80124 -0.4502,-0.28683 -0.78782,-0.9155 -0.90383,-1.683 -0.10185,-0.67382 -0.54904,-3.02248 -0.99376,-5.21922 -1.47768,-7.29929 -2.40304,-11.94444 -3.10142,-15.56875 -0.79006,-4.1 -1.9442,-9.97098 -3.0766,-15.65025 -1.2146,-6.09153 -2.09883,-10.65213 -2.30737,-11.90072 -0.10483,-0.62764 -0.46294,-2.46166 -0.79581,-4.07559 -0.33287,-1.61393 -0.98974,-4.91516 -1.45971,-7.33606 -0.46996,-2.4209 -1.22707,-6.30901 -1.68245,-8.64025 -0.45538,-2.33124 -1.10807,-5.70582 -1.45043,-7.49908 -0.79637,-4.17141 -1.99835,-10.30357 -3.03488,-15.48307 -0.44812,-2.23928 -0.77159,-4.11459 -0.71882,-4.16734 0.0528,-0.0528 2.0606,0.22358 4.46184,0.61406 6.03608,0.98159 18.82368,1.07418 24.42542,0.17686 3.829,-0.61334 11.1939,-2.29598 15.00387,-3.42789 3.14709,-0.93497 7.94685,-2.67732 8.30106,-3.01335 0.17042,-0.16168 0.57014,-0.29396 0.88825,-0.29396 0.31811,0 1.20611,-0.28175 1.97333,-0.62611 0.76723,-0.34436 2.20223,-0.94395 3.1889,-1.33244 0.98666,-0.38847 2.82138,-1.14852 4.07714,-1.68898 1.25576,-0.54048 3.16386,-1.35701 4.24022,-1.81451 1.07637,-0.45751 2.54414,-1.09384 3.26171,-1.41405 0.71758,-0.32023 3.87329,-1.69879 7.01269,-3.06347 3.1394,-1.36467 6.2951,-2.7681 7.01268,-3.11873 0.71757,-0.35063 1.41041,-0.6371 1.53964,-0.6366 0.12924,4.9e-4 1.03719,-0.36589 2.01768,-0.81421 0.98048,-0.44831 1.86149,-0.81512 1.95777,-0.81512 0.0963,0 0.94966,-0.35254 1.89639,-0.78344 0.94672,-0.43088 2.16164,-0.93468 2.69983,-1.11955 0.53818,-0.18486 2.15273,-0.78845 3.58788,-1.34132 8.17816,-3.15046 16.04143,-5.29059 24.11463,-6.56323 3.97818,-0.62711 5.35986,-0.69364 11.08982,-0.534 5.64279,0.15721 12.78612,0.80735 15.51517,1.4121 l 0.81543,0.1807 -0.84861,0.70635 c -0.46673,0.38848 -1.18368,0.92642 -1.59322,1.19541 -4.65204,3.0555 -17.40458,15.23043 -22.71077,21.68212 -2.57343,3.12899 -7.65871,9.72636 -8.93229,11.58827 -0.26909,0.3934 -1.1508,1.61501 -1.95936,2.71468 -0.80855,1.09968 -2.34971,3.3199 -3.4248,4.93384 -1.07508,1.61392 -2.03997,3.00778 -2.14421,3.09744 -0.10423,0.0897 -0.86749,1.19008 -1.69613,2.44535 -0.82864,1.25529 -2.3946,3.57314 -3.47991,5.15081 -1.08531,1.57765 -1.9733,2.98825 -1.9733,3.13465 0,0.14641 0.6972,0.52361 1.54932,0.83823 2.29749,0.84828 4.85824,1.93533 10.84519,4.60383 6.66198,2.96937 11.99359,5.69111 19.73336,10.07372 1.67058,0.94595 1.98501,1.13063 5.27083,3.09573 1.04772,0.62659 2.05171,1.21347 2.23111,1.30419 1.21118,0.61246 10.91709,7.23141 13.04685,8.89729 0.17939,0.14032 2.16088,1.66997 4.40331,3.39922 3.71066,2.86151 9.46739,7.53572 10.27439,8.34236 0.21744,0.21735 0.12631,0.25542 -0.27337,0.11422 -1.52622,-0.53917 -9.99474,-1.18829 -15.4955,-1.18775 -9.0853,10e-4 -14.07649,0.62062 -22.71933,2.82092 -2.83005,0.72049 -7.84498,2.3272 -10.11131,3.23952 -1.07637,0.4333 -2.08545,0.7874 -2.24241,0.78688 -0.15697,-5.4e-4 -1.18441,0.38126 -2.2832,0.84839 -1.0988,0.46713 -2.58492,1.07619 -3.3025,1.35346 -1.34637,0.52024 -3.74663,1.52026 -7.99119,3.32938 -1.34546,0.57347 -2.73984,1.16699 -3.09863,1.31894 -0.35879,0.15195 -1.60639,0.7023 -2.77246,1.223 -3.15636,1.40946 -6.8279,3.00512 -11.41599,4.96143 -1.34546,0.57369 -3.03339,1.30253 -3.75097,1.61965 -3.25426,1.43817 -5.31693,2.29926 -5.50771,2.29926 -0.11407,0 -0.8296,0.2867 -1.59007,0.63712 -1.62885,0.75056 -2.53182,1.07725 -9.86312,3.56838 -6.99346,2.37633 -8.54875,2.77861 -15.16696,3.92298 -6.0217,1.04121 -11.24789,1.30805 -19.2441,0.98254 z"
       id="path161" />
    <!-- AQUÍ TAMBIÉN SE CAMBIA EL COLOR, EN style="fill:#color -->
    <path
       style="fill:#fe0000;stroke-width:2;stroke:#000000;stroke-opacity:1;stroke-miterlimit:4;stroke-dasharray:none"
       d="m 365.07219,586.78178 c -1.47611,-0.9154 -1.10037,0.59693 -6.32167,-25.44402 -0.45843,-2.28641 -1.1154,-5.55095 -1.45992,-7.25455 -0.34452,-1.70359 -1.00204,-5.00482 -1.46115,-7.33606 -0.45911,-2.33124 -1.19514,-6.03626 -1.63563,-8.23338 -0.4405,-2.19712 -1.16123,-5.7918 -1.60163,-7.98815 -0.44039,-2.19636 -1.11459,-5.60731 -1.49822,-7.5799 -0.83718,-4.30474 -2.0257,-10.3197 -3.0924,-15.65026 -0.43061,-2.15191 -1.08489,-5.45314 -1.45394,-7.33606 -0.36905,-1.88292 -0.96887,-4.89071 -1.33294,-6.68396 -0.36406,-1.79326 -0.78725,-4.06744 -0.94042,-5.05374 -0.15316,-0.98628 -0.58733,-3.08864 -0.96481,-4.67191 -0.37748,-1.58326 -0.68633,-3.18689 -0.68633,-3.56361 0,-0.37672 -0.35046,-2.23583 -0.77881,-4.13136 -0.42834,-1.89552 -1.17301,-5.57386 -1.65482,-8.17408 -0.4818,-2.60023 -1.15701,-6.12154 -1.50046,-7.82513 -0.34345,-1.7036 -0.99832,-5.00482 -1.45527,-7.33605 -0.45695,-2.33124 -1.18188,-5.99927 -1.61095,-8.15118 -0.42908,-2.15191 -1.07362,-5.45314 -1.43232,-7.33606 -1.06472,-5.58896 -2.30431,-11.96643 -3.13701,-16.13933 -0.9445,-4.73315 -2.26839,-11.5519 -3.10186,-15.9763 -0.33781,-1.79326 -0.99113,-5.20453 -1.45181,-7.5806 -1.50095,-7.74156 -3.29453,-17.07429 -4.55853,-23.71992 -1.43983,-7.57014 -1.41472,-8.48617 0.27912,-10.17937 0.99762,-0.99725 5.40576,-2.22972 10.29141,-2.87738 3.19879,-0.42405 3.94303,-0.432 5.05566,-0.054 2.13403,0.72497 3.09452,2.50616 4.16889,7.73099 1.57037,7.63692 3.86629,19.17633 4.80048,24.12749 0.70785,3.75153 1.62989,8.46785 3.09148,15.81327 0.96203,4.83476 2.21792,11.2898 3.07663,15.81328 0.35744,1.88292 1.03826,5.40423 1.51294,7.82513 0.47467,2.42091 1.22042,6.23566 1.65721,8.47723 0.43679,2.24157 1.07848,5.46944 1.42598,7.17303 0.3475,1.7036 0.78337,4.05114 0.96859,5.21676 0.18523,1.16561 0.55499,2.92627 0.82169,3.91257 0.26671,0.98628 0.48666,2.13594 0.48879,2.55478 0.002,0.41884 0.36278,2.47294 0.80143,4.56466 0.75195,3.58565 1.70263,8.392 3.1384,15.86687 1.27422,6.63382 2.2835,11.84727 3.07708,15.89479 1.17841,6.01024 2.40195,12.31425 3.11664,16.05782 0.34236,1.79326 0.98063,5.09448 1.41837,7.33606 0.43775,2.24158 1.17944,6.05632 1.6482,8.47722 0.46876,2.4209 1.20794,6.23565 1.64261,8.47722 0.43468,2.24158 1.09456,5.68953 1.46642,7.66211 0.37184,1.97258 0.98865,5.05373 1.37067,6.84699 0.38202,1.79325 0.74924,3.70063 0.81605,4.23861 0.0668,0.53798 0.49432,2.88551 0.95003,5.21676 0.45571,2.33123 1.11064,5.70581 1.45542,7.49907 0.34476,1.79326 0.98048,5.09449 1.41269,7.33607 1.40947,7.30981 1.41551,7.16448 -0.37682,9.06291 -1.14296,1.21061 -3.55588,2.09684 -8.07104,2.96434 -4.34643,0.83508 -7.16692,0.87898 -8.37412,0.13035 z"
       id="path200" />
    <!-- AQUÍ SE CAMBIA EL NÚMERO, EN id="tspan13782">Número (última línea) -->
    <text
       xml:space="preserve"
       style="font-style:normal;font-weight:normal;font-size:40px;line-height:1.25;font-family:sans-serif;white-space:pre;inline-size:186.546;fill:#000000;fill-opacity:1;stroke:none"
       x="417.92337"
       y="385.21631"
       id="text8728"
       transform="matrix(2.1988648,0,0,2.1988648,-530.55972,-419.57155)"><tspan
         x="417.92337"
         y="385.21631"
         id="tspan13782">0</tspan></text>
  </g>
</svg>
