<?xml version="1.0" encoding="UTF-8" standalone="no"?>
<svg
   version="1.0"
   width="59.000000pt"
   height="47.000000pt"
   viewBox="0 0 59.000000 47.000000"
   preserveAspectRatio="xMidYMid meet"
   id="svg8"
   sodipodi:docname="FichaRoja.svg"
   inkscape:version="1.1 (c68e22c387, 2021-05-23)"
   xmlns:inkscape="http://www.inkscape.org/namespaces/inkscape"
   xmlns:sodipodi="http://sodipodi.sourceforge.net/DTD/sodipodi-0.dtd"
   xmlns="http://www.w3.org/2000/svg"
   xmlns:svg="http://www.w3.org/2000/svg">
  <defs
     id="defs12" />
  <sodipodi:namedview
     id="namedview10"
     pagecolor="#ffffff"
     bordercolor="#666666"
     borderopacity="1.0"
     inkscape:pageshadow="2"
     inkscape:pageopacity="0.0"
     inkscape:pagecheckerboard="0"
     inkscape:document-units="pt"
     showgrid="false"
     inkscape:zoom="9.7340426"
     inkscape:cx="39.295082"
     inkscape:cy="31.384699"
     inkscape:window-width="1440"
     inkscape:window-height="837"
     inkscape:window-x="-8"
     inkscape:window-y="-8"
     inkscape:window-maximized="1"
     inkscape:current-layer="svg8"
     inkscape:snap-global="false" />
  <metadata
     id="metadata2">
Created by potrace 1.16, written by Peter Selinger 2001-2019
</metadata>
  <ellipse
     style="font-variation-settings:normal;opacity:1;vector-effect:none;fill:#ffffff;fill-opacity:1;fill-rule:evenodd;stroke:#000000;stroke-width:0.75;stroke-linecap:butt;stroke-linejoin:miter;stroke-miterlimit:4;stroke-dasharray:none;stroke-dashoffset:0;stroke-opacity:1;-inkscape-stroke:none;stop-color:#000000;stop-opacity:1"
     id="path1813"
     cx="29.895081"
     cy="13.021311"
     rx="23.962296"
     ry="8.0131149" />
  <path
     style="fill:none;stroke:#000000;stroke-width:0.75px;stroke-linecap:butt;stroke-linejoin:miter;stroke-opacity:1"
     d="m 5.7786885,12.790164 c 0,19.72459 0,19.647541 0,19.647541"
     id="path1969" />
  <path
     style="fill:none;stroke:#000000;stroke-width:0.75px;stroke-linecap:butt;stroke-linejoin:miter;stroke-opacity:1"
     d="m 53.780328,12.944262 c 0,19.493443 0,19.570492 0,19.570492"
     id="path1971" />
  <path
     style="fill:none;stroke:#000000;stroke-width:0.75px;stroke-linecap:butt;stroke-linejoin:miter;stroke-opacity:1"
     d="m 5.7016393,32.283607 c 0,0 24.9639347,14.331147 48.0016397,0.231147"
     id="path1977" />
  <path
     style="fill:none;stroke:#000000;stroke-width:0.75px;stroke-linecap:butt;stroke-linejoin:miter;stroke-opacity:1"
     d="m 53.703279,31.821311 c 0,0 0.693442,0.539345 -0.847541,1.078689"
     id="path1981" />
    <!-- AQUÍ SE CAMBIA EL COLOR, EN style="fill:#color -->
  <path
     style="fill:#ff0000;fill-opacity:1;stroke:#000000;stroke-width:0.102732;stroke-opacity:1"
     d="M 38.595258,51.008204 C 28.831278,50.478919 18.825732,47.895015 9.9393443,43.607894 L 8.2699454,42.802515 V 31.494391 20.186266 l 0.7108197,0.748308 c 3.7013319,3.89654 12.6815279,6.594169 24.9208739,7.486168 2.260697,0.164759 9.656243,0.164759 11.91694,0 11.861287,-0.864447 20.657237,-3.416557 24.563316,-7.12695 l 0.760182,-0.722099 v 11.195273 11.195272 l -0.436613,0.194674 c -0.240136,0.107071 -0.505956,0.272325 -0.59071,0.36723 -0.21452,0.240215 -2.741336,1.583942 -4.482131,2.383539 -6.093634,2.79898 -12.320755,4.409496 -19.300383,4.991643 -1.792151,0.149478 -5.917185,0.207528 -7.736982,0.10888 z"
     id="path2484"
     transform="scale(0.75)" />
    <!-- AQUÍ TAMBIÉN SE CAMBIA EL COLOR, EN style="fill:#color -->
  <path
     style="fill:#ff0000;fill-opacity:1;stroke:#000000;stroke-width:0.102732;stroke-opacity:1"
     d="M 34.877596,27.367725 C 27.899841,26.979218 21.333788,25.798852 16.549813,24.072974 15.082207,23.543516 12.556666,22.30845 11.508836,21.607783 10.342084,20.827595 9.2945208,19.747438 8.8717286,18.888625 8.5669618,18.269556 8.526776,18.09168 8.526776,17.361749 c 0,-0.729932 0.040186,-0.907808 0.3449526,-1.526877 0.4206456,-0.854452 1.4638594,-1.931216 2.6381704,-2.723013 1.027013,-0.69248 3.543758,-1.921578 5.039914,-2.461335 11.609344,-4.1882141 30.847891,-4.5725214 43.846822,-0.8758797 2.201379,0.6260287 3.63323,1.1558897 5.359461,1.9832857 2.679003,1.284065 4.392796,2.655858 5.091764,4.075661 0.319311,0.648614 0.34247,0.763095 0.318838,1.576082 -0.03427,1.178852 -0.380114,1.896604 -1.410236,2.926726 -3.284124,3.284123 -11.489589,5.862403 -21.575041,6.779196 -3.944155,0.358535 -9.501235,0.463851 -13.303825,0.25213 z"
     id="path2523"
     transform="scale(0.75)" />
</svg>
